<mxfile host="app.diagrams.net" modified="2024-05-14T19:05:14.071Z" agent="Mozilla/5.0 (Macintosh; Intel Mac OS X 10_15_7) AppleWebKit/537.36 (KHTML, like Gecko) Chrome/123.0.0.0 Safari/537.36" version="24.4.0" etag="5qGqbP0NeLr9jUmBdw5I" type="github">
  <diagram name="Page-1" id="znrAncbv7iqfhyZRnC9_">
    <mxGraphModel>
      <root>
        <mxCell id="0" />
        <mxCell id="1" parent="0" />
      </root>
    </mxGraphModel>
  </diagram>
</mxfile>
